<svg xmlns="http://www.w3.org/2000/svg" viewBox="0 0 256 256">
<defs>
  <linearGradient id="g" x1="35" y1="205" x2="220" y2="35" gradientUnits="userSpaceOnUse">
    <stop offset="0" stop-color="#16c9ff"/>
    <stop offset=".52" stop-color="#6f78ff"/>
    <stop offset="1" stop-color="#ff32dc"/>
  </linearGradient>
  <filter id="glow" x="-30%" y="-30%" width="160%" height="160%">
    <feGaussianBlur stdDeviation="5" result="b"/>
    <feMerge><feMergeNode in="b"/><feMergeNode in="SourceGraphic"/></feMerge>
  </filter>
</defs>
<rect width="256" height="256" rx="56" fill="#060a22"/>
<g filter="url(#glow)">
  <path d="M34 158c18 51 92 64 157 26 35-21 52-47 38-69-9-14-25-20-43-20"
        fill="none" stroke="url(#g)" stroke-width="17" stroke-linecap="round"/>
  <path d="M74 167c24-2 48-11 60-28 8-11 10-24 6-37"
        fill="none" stroke="url(#g)" stroke-width="16" stroke-linecap="round"/>
  <path d="M125 101 176 46c8-9 19-14 27-8 7 6 5 17-1 26l-48 62c-9 12-22 14-32 5-9-8-8-19 3-30Z"
        fill="url(#g)"/>
  <path d="M128 102 165 62" stroke="#eef4ff" stroke-opacity=".55" stroke-width="5" stroke-linecap="round"/>
</g>
</svg>