<svg xmlns="http://www.w3.org/2000/svg" viewBox="0 0 160 110">
<defs>
 <linearGradient id="g" x1="18" y1="92" x2="140" y2="18" gradientUnits="userSpaceOnUse">
  <stop stop-color="#16c9ff"/><stop offset=".52" stop-color="#7375ff"/><stop offset="1" stop-color="#ff39d5"/>
 </linearGradient>
 <filter id="glow"><feGaussianBlur stdDeviation="3" result="b"/><feMerge><feMergeNode in="b"/><feMergeNode in="SourceGraphic"/></feMerge></filter>
</defs>
<g fill="none" stroke="url(#g)" stroke-linecap="round" stroke-linejoin="round" filter="url(#glow)">
 <path d="M15 73c20 27 65 31 105 10 23-12 35-29 28-42-5-10-15-14-27-15" stroke-width="10"/>
 <path d="M59 76c16-2 30-9 36-19 4-7 5-14 2-21" stroke-width="9"/>
 <path d="M92 42 125 9c5-5 11-6 15-2 4 4 2 10-1 15l-30 39c-6 8-14 9-21 3-5-5-4-12 4-22Z" fill="url(#g)" stroke="none"/>
 <path d="m96 43 24-25" stroke="#fff" stroke-opacity=".65" stroke-width="3"/>
</g>
</svg>